<svg width="16" height="16" viewBox="0 0 16 16" fill="none" xmlns="http://www.w3.org/2000/svg">
<path d="M14.8569 13.9124L12.9445 11.9998C13.5775 11.2475 14.0361 10.4153 14.104 9.72095C14.1399 9.35333 13.871 9.02618 13.5034 8.99022C13.1358 8.95426 12.8087 9.22319 12.7727 9.59081C12.7641 9.67879 12.7423 9.77334 12.7094 9.87266L10.8374 8.00065L14.8567 3.98044C14.93 3.90704 14.9853 3.8176 15.0182 3.71919L15.9645 0.882021C16.1389 0.359144 15.6415 -0.138401 15.1186 0.0358495L12.2811 0.981593C12.1826 1.01442 12.093 1.06975 12.0196 1.14318L8.00003 5.16317L3.98037 1.14343C3.90699 1.07003 3.81752 1.01473 3.71908 0.981906L0.881482 0.0355046C0.358621 -0.138871 -0.138879 0.358674 0.0355128 0.881582L0.981829 3.71941C1.01465 3.81788 1.06995 3.90733 1.14334 3.98072L5.16268 8.00074L3.28237 9.88122C3.25268 9.78689 3.23434 9.69769 3.22933 9.61546C3.20697 9.24677 2.88995 8.96598 2.52129 8.98837C2.15263 9.01075 1.87187 9.32778 1.89426 9.69647C1.9246 10.1965 2.17389 10.7752 2.55433 11.3458C2.55828 11.352 2.56176 11.3585 2.56596 11.3647C2.58032 11.3859 2.59549 11.4071 2.61019 11.4283C2.61029 11.4284 2.61038 11.4285 2.61044 11.4286C2.6359 11.4653 2.66164 11.5019 2.68813 11.5385C2.71132 11.5706 2.7349 11.6028 2.75885 11.6348C2.76543 11.6436 2.77201 11.6524 2.77869 11.6612C2.86553 11.7762 2.9571 11.8902 3.05271 12.0025L1.14312 13.9123C0.881953 13.6512 0.458529 13.6512 0.197365 13.9124C-0.0637992 14.1736 -0.0637992 14.5971 0.197365 14.8582L0.665585 15.3265C0.667122 15.3281 0.668438 15.3298 0.670006 15.3314C0.671573 15.333 0.673297 15.3342 0.674896 15.3358L1.14305 15.804C1.40422 16.0652 1.82767 16.0652 2.08884 15.804C2.34997 15.5429 2.35 15.1195 2.08893 14.8583L4.00138 12.9457C4.75358 13.5787 5.58573 14.0374 6.28 14.1052C6.64759 14.1412 6.97471 13.8723 7.01067 13.5046C7.0466 13.137 6.77772 12.8099 6.41013 12.7739C6.3221 12.7653 6.22749 12.7435 6.12809 12.7105L7.99975 10.8383L9.88015 12.719C9.78595 12.7486 9.69686 12.7669 9.61473 12.7719C9.24607 12.7942 8.96531 13.1113 8.98769 13.48C9.01008 13.8487 9.32707 14.1294 9.69573 14.1071C10.197 14.0767 10.7773 13.8261 11.3492 13.444C11.3537 13.4411 11.3584 13.4387 11.3628 13.4356C11.3795 13.4244 11.396 13.4125 11.4126 13.4011C11.4293 13.3896 11.4461 13.3779 11.4628 13.3662C11.4805 13.3537 11.4982 13.3416 11.5159 13.3289C11.5566 13.2997 11.5972 13.2698 11.6378 13.2394C11.6444 13.2345 11.6509 13.2296 11.6574 13.2247C11.7734 13.1372 11.8884 13.0449 12.0017 12.9484L13.9113 14.8582C13.6501 15.1194 13.6501 15.5429 13.9113 15.8041C14.1724 16.0653 14.5959 16.0653 14.8571 15.8041L15.326 15.3352C15.3273 15.3338 15.3288 15.3327 15.3301 15.3314C15.3315 15.33 15.3326 15.3286 15.3339 15.3272L15.8027 14.8584C16.0639 14.5972 16.0639 14.1737 15.8027 13.9125C15.5415 13.6514 15.1181 13.6513 14.8569 13.9124ZM12.8538 2.20072L14.2724 1.72791L13.7993 3.14624L9.89166 7.05484L8.94584 6.109L12.8538 2.20072ZM1.72764 1.72782L3.14622 2.20094L7.52137 6.57617C7.52331 6.57817 7.52494 6.58034 7.52692 6.58231L9.41886 8.47377C9.41905 8.47396 9.41924 8.47411 9.41942 8.47427L11.994 11.0489C11.8498 11.227 11.6931 11.4013 11.5279 11.5664C11.3733 11.7211 11.2138 11.8658 11.0519 11.9991L8.47436 9.42117C8.47374 9.42055 8.47323 9.41986 8.47261 9.41923L6.58132 7.52777C6.58113 7.52759 6.58095 7.52746 6.58079 7.52727L2.20072 3.14652L1.72764 1.72782ZM4.95192 11.995C4.81966 11.8879 4.68913 11.7736 4.56258 11.6538C4.56192 11.6531 4.56126 11.6525 4.5606 11.6518C4.52493 11.6181 4.48972 11.5836 4.45474 11.549C4.44408 11.5385 4.43348 11.5279 4.42292 11.5173C4.27166 11.3645 4.13157 11.21 4.00225 11.053L6.10843 8.94664L7.05393 9.89232L4.95192 11.995Z" fill="black"/>
</svg>
