<svg width="20" height="21" viewBox="0 0 20 21" fill="none" xmlns="http://www.w3.org/2000/svg">
<path d="M17.4379 3.02884C15.5782 1.10395 12.8668 0 9.99963 0C7.13308 0 4.42172 1.10395 2.56267 3.02823C0.824961 4.82726 -0.0828571 7.23257 0.00594987 9.80274L0.276173 13.2322C0.522764 16.6973 2.53454 17.0717 3.38744 17.0717C3.69667 17.0717 4.02246 17.027 4.3534 16.9414C4.39813 17.2659 4.39429 17.8351 4.3911 18.2779L4.38791 18.8938C4.38215 19.341 4.37323 20.0182 4.84724 20.4979C5.04337 20.6973 5.40179 20.9343 5.99208 20.9343H14.0079C14.5982 20.9343 14.956 20.6973 15.1527 20.4986C15.6261 20.0182 15.6178 19.3416 15.6121 18.8938L15.6082 18.2792C15.6056 17.8358 15.6012 17.266 15.6466 16.9414C15.9807 17.0276 16.3046 17.0717 16.6125 17.0717C17.4654 17.0717 19.4765 16.6974 19.7238 13.2386L19.9921 9.83856L19.9941 9.80278C20.0828 7.23257 19.175 4.82726 17.4379 3.02884ZM18.3394 9.7273L18.0729 13.1146C17.9637 14.6415 17.4718 15.4157 16.6125 15.4157C16.4144 15.4157 16.1927 15.3793 15.9461 15.3058C15.3571 15.1359 14.8466 15.2496 14.4863 15.6125C13.9382 16.1645 13.9439 17.0563 13.9529 18.2906L13.9561 18.9154C13.9573 19.0176 13.9593 19.1684 13.9503 19.2783H12.2024V17.2333H10.8774V19.2783H9.12179V17.2333H7.79741V19.2783H6.04883C6.04053 19.1684 6.04245 19.0176 6.04372 18.9142L6.04691 18.2887C6.05586 17.0557 6.06159 16.1645 5.51345 15.6125C5.15504 15.2509 4.65674 15.1321 4.04663 15.3078C3.80707 15.3793 3.58538 15.4158 3.38732 15.4158C2.52742 15.4158 2.03678 14.6415 1.92687 13.1082L1.65984 9.7273C1.59213 7.61716 2.33447 5.64754 3.75338 4.17941C5.30272 2.57589 7.57965 1.65593 9.99963 1.65593C12.4203 1.65593 14.6972 2.57589 16.2464 4.17945C17.6654 5.64754 18.4083 7.61716 18.3394 9.7273Z" fill="black"/>
<path d="M10.0003 12.661C9.60289 12.661 8.72766 14.5699 8.56795 14.888C8.40952 15.2062 8.72766 15.6841 9.20489 15.5244C9.68213 15.3659 10.0003 14.9679 10.0003 14.9679C10.0003 14.9679 10.3184 15.3659 10.7957 15.5244C11.2722 15.6841 11.591 15.2062 11.432 14.888C11.2722 14.5699 10.3983 12.661 10.0003 12.661Z" fill="black"/>
<path d="M6.54852 7.49384C5.28547 7.36096 4.15343 8.27838 4.02055 9.54204L3.84931 10.745C3.71643 12.0093 4.63385 13.1401 5.89686 13.273C7.16117 13.4059 8.29322 12.4891 8.42549 11.2248L8.59672 10.0218C8.72895 8.75754 7.81283 7.62673 6.54852 7.49384Z" fill="black"/>
<path d="M15.9794 9.54204C15.8471 8.27838 14.7144 7.36096 13.4514 7.49384C12.1871 7.62673 11.271 8.7575 11.4032 10.0218L11.5738 11.2248C11.7067 12.4891 12.8387 13.4059 14.1024 13.273C15.3661 13.1401 16.2835 12.0093 16.1506 10.745L15.9794 9.54204Z" fill="black"/>
</svg>
