<svg width="20" height="20" viewBox="0 0 20 20" fill="none" xmlns="http://www.w3.org/2000/svg">
<path d="M19.6711 0.328871C19.5668 0.224599 19.4431 0.141887 19.3068 0.085459C19.1706 0.0290308 19.0246 -8.30247e-06 18.8771 1.78056e-09H18.8735L12.9035 0.0188238C12.7477 0.0193088 12.5936 0.0522371 12.4512 0.115512C12.3088 0.178788 12.1811 0.271024 12.0762 0.386348L5.38239 7.74926L5.22832 7.59519C4.877 7.24487 4.40108 7.04816 3.90493 7.0482C3.40878 7.04823 2.93289 7.24501 2.58162 7.59538L1.02035 9.15658C0.846532 9.33034 0.708646 9.53664 0.614569 9.7637C0.520491 9.99076 0.472066 10.2341 0.472057 10.4799C0.472048 10.7257 0.520457 10.969 0.614518 11.1961C0.708579 11.4232 0.84645 11.6295 1.02026 11.8033L2.3358 13.1188L0.547266 14.9072C0.196814 15.2585 0 15.7344 0 16.2305C0 16.7267 0.196814 17.2026 0.547266 17.5538L2.44546 19.4518C2.61924 19.6256 2.82554 19.7635 3.05261 19.8575C3.27967 19.9516 3.52303 20 3.7688 20C4.01457 20 4.25794 19.9516 4.485 19.8576C4.71207 19.7635 4.91838 19.6256 5.09216 19.4519L6.88061 17.6635L8.19624 18.9791C8.54756 19.3295 9.02347 19.5262 9.51963 19.5261C10.0158 19.5261 10.4917 19.3293 10.8429 18.9789L12.4042 17.4177C12.578 17.244 12.7159 17.0377 12.81 16.8106C12.9041 16.5835 12.9525 16.3402 12.9525 16.0944C12.9525 15.8486 12.9041 15.6053 12.81 15.3782C12.716 15.1511 12.5781 14.9448 12.4043 14.771L12.2504 14.6171L19.6136 7.92351C19.729 7.81867 19.8212 7.69096 19.8845 7.54852C19.9478 7.40608 19.9807 7.25203 19.9812 7.09617L20 1.12642C20.0005 0.978368 19.9716 0.831683 19.9152 0.694807C19.8588 0.557932 19.7758 0.433568 19.6711 0.328871ZM9.51954 17.1264L8.204 15.8108C8.03023 15.6371 7.82392 15.4992 7.59686 15.4051C7.36979 15.3111 7.12643 15.2627 6.88065 15.2627C6.63488 15.2627 6.39151 15.3111 6.16445 15.4051C5.93739 15.4992 5.73108 15.6371 5.5573 15.8108L3.76877 17.5992L2.39995 16.2305L4.18848 14.4421C4.53893 14.0909 4.73575 13.615 4.73575 13.1188C4.73575 12.6227 4.53893 12.1468 4.18848 11.7955L2.87294 10.48L3.90502 9.44794L7.22809 12.7709L7.22832 12.7711L7.22854 12.7714L10.5516 16.0943L9.51954 17.1264ZM17.7369 6.59451L10.6605 13.0273L9.61038 11.9772L14.4309 7.15685C14.6412 6.94622 14.7593 6.66069 14.7592 6.36303C14.7591 6.06536 14.6408 5.77992 14.4303 5.56943C14.2198 5.35895 13.9344 5.24066 13.6367 5.24055C13.339 5.24045 13.0535 5.35854 12.8428 5.56888L8.02234 10.3892L6.97217 9.33901L13.4052 2.26299L17.7506 2.24928L17.7369 6.59451Z" fill="black"/>
</svg>
