<svg width="16" height="16" viewBox="0 0 16 16" fill="none" xmlns="http://www.w3.org/2000/svg">
<path d="M2.66666 15.3333L2.66666 14.2762L4 12.9428L4 13.3332C4 13.7014 4.29847 13.9998 4.66666 13.9998C5.03484 13.9998 5.33331 13.7014 5.33331 13.3332L5.33331 11.6095L8.29131 8.65147L11.9195 12.2797C11.9137 12.2886 11.9081 12.2971 11.9026 12.3052L11.8172 12.4474L11.7797 12.5215C11.2813 13.6803 11.3227 14.4319 11.7559 15.2926C12.1265 16.0322 13.1258 16.1696 13.6787 15.5502C13.9893 15.2013 14.0577 14.7075 13.8701 14.285C13.7206 13.9485 13.3267 13.7969 12.9902 13.9463C12.8979 13.9873 12.8195 14.0467 12.7574 14.1182C12.7282 13.8394 12.7976 13.537 12.9886 13.0857L13.0277 13.0191C13.1614 12.8264 13.3525 12.4586 13.5451 11.895C13.9304 10.7682 14.1197 9.37278 14.0141 7.70481C14.0107 7.65184 14.0027 7.60225 13.9907 7.55609C13.971 7.46566 13.9508 7.38556 13.925 7.29663C13.8537 7.05081 13.7525 6.77872 13.616 6.48572C13.3221 5.85487 12.9072 5.21534 12.3543 4.58844L14.6667 2.27616L14.6667 3.33334C14.6667 3.70153 14.9651 4 15.3333 4C15.7015 4 16 3.70153 16 3.33334L16 0.666656C16 0.644719 15.9988 0.622719 15.9967 0.600875C15.9957 0.591 15.9939 0.581438 15.9925 0.571719C15.9908 0.559938 15.9894 0.548125 15.9871 0.536406C15.9849 0.525219 15.9818 0.514375 15.979 0.503406C15.9765 0.493312 15.9743 0.483156 15.9712 0.473156C15.968 0.462375 15.9639 0.451969 15.9602 0.441438C15.9566 0.431469 15.9533 0.421406 15.9492 0.411563C15.9451 0.401719 15.9403 0.39225 15.9358 0.382656C15.931 0.372562 15.9265 0.362344 15.9212 0.352437C15.9163 0.343219 15.9107 0.334469 15.9053 0.3255C15.8995 0.315813 15.8941 0.305969 15.8877 0.2965C15.8811 0.286594 15.8737 0.277281 15.8666 0.26775C15.8607 0.259875 15.8552 0.251781 15.8489 0.244125C15.821 0.210156 15.7898 0.178969 15.7559 0.151094C15.7482 0.144781 15.7401 0.139312 15.7322 0.133406C15.7227 0.126281 15.7134 0.118906 15.7035 0.112281C15.694 0.105937 15.6842 0.100469 15.6745 0.0946562C15.6655 0.0893125 15.6567 0.0836875 15.6475 0.07875C15.6376 0.0734375 15.6274 0.0689687 15.6173 0.0641875C15.6077 0.0596562 15.5983 0.0548437 15.5884 0.05075C15.5786 0.0466875 15.5685 0.0434062 15.5585 0.0398125C15.548 0.0360312 15.5376 0.032 15.5268 0.0287187C15.5168 0.0256875 15.5067 0.0234687 15.4966 0.0209375C15.4856 0.0181562 15.4747 0.0150937 15.4636 0.012875C15.4518 0.0105625 15.44 0.00918748 15.4283 0.00749997C15.4185 0.00612497 15.4089 0.00424997 15.3991 0.00328122C15.3772 0.00115622 15.3553 -2.81802e-08 15.3333 -2.91405e-08L12.6667 -1.45704e-07C12.2985 -1.61799e-07 12 0.298469 12 0.666656C12 1.03484 12.2985 1.33331 12.6667 1.33331L13.7238 1.33331L11.4332 3.624C10.7318 2.93794 9.96916 2.45106 9.20156 2.15244C8.63537 1.93219 8.21997 1.8585 7.89188 1.84481C6.21956 1.739 4.82813 1.9225 3.72069 2.29934C3.21938 2.46994 2.863 2.64781 2.64538 2.79084C2.31319 2.93128 2.08225 3.00503 1.89209 3.02125C1.93287 2.98125 1.96912 2.93534 1.99956 2.88381C2.18675 2.56675 2.08147 2.15797 1.76441 1.97081C1.34353 1.72234 0.81225 1.78597 0.455406 2.11431L0.375812 2.18784C-0.164813 2.66934 -0.101406 3.55437 0.526156 3.94869C1.32369 4.45006 2.01753 4.51316 3.23119 3.9905L3.35775 3.91872C3.38659 3.89791 3.42838 3.87197 3.48241 3.84244L7.34859 7.70862L4.39059 10.6666L2.66675 10.6666C2.29856 10.6666 2.00009 10.9651 2.00009 11.3333C2.00009 11.7015 2.29847 12 2.66666 12L3.05719 12L1.72384 13.3333L0.666656 13.3333C0.298468 13.3333 -5.95865e-07 13.6318 -6.11959e-07 14C-6.28053e-07 14.3682 0.298468 14.6667 0.666656 14.6667L1.33331 14.6667L1.33331 15.3333C1.33331 15.7015 1.63178 16 1.99997 16C2.36819 16 2.66666 15.7015 2.66666 15.3333ZM12.4074 7.04878C12.5145 7.27856 12.5918 7.48659 12.6444 7.66803C12.6618 7.72791 12.6748 7.77916 12.684 7.82144C12.7583 9.03506 12.6608 10.0632 12.4444 10.9189L9.23412 7.70862L11.4087 5.53406C11.8546 6.05147 12.1782 6.55691 12.4074 7.04878ZM4.88394 3.35844C5.6995 3.17862 6.67556 3.10384 7.82213 3.17625C7.89138 3.17928 7.94341 3.18412 8.05406 3.20375C8.25075 3.23866 8.47412 3.30009 8.71822 3.39506C9.30991 3.62525 9.90878 4.00469 10.4899 4.56728L8.29134 6.76584L4.88394 3.35844Z" fill="black"/>
</svg>
